<mxfile host="65bd71144e">
    <diagram id="efIk_Bcqotep3z4uqAFJ" name="Page-1">
        <mxGraphModel dx="795" dy="867" grid="1" gridSize="10" guides="1" tooltips="1" connect="1" arrows="1" fold="1" page="1" pageScale="1" pageWidth="1654" pageHeight="2336" math="0" shadow="0">
            <root>
                <mxCell id="0"/>
                <mxCell id="1" parent="0"/>
                <mxCell id="6" style="edgeStyle=none;html=1;entryX=0.5;entryY=0;entryDx=0;entryDy=0;" edge="1" parent="1" source="2" target="5">
                    <mxGeometry relative="1" as="geometry"/>
                </mxCell>
                <mxCell id="2" value="更新节点" style="rounded=1;whiteSpace=wrap;html=1;" vertex="1" parent="1">
                    <mxGeometry x="930" y="70" width="120" height="70" as="geometry"/>
                </mxCell>
                <mxCell id="8" value="" style="edgeStyle=none;html=1;" edge="1" parent="1" source="5" target="7">
                    <mxGeometry relative="1" as="geometry"/>
                </mxCell>
                <mxCell id="11" value="" style="edgeStyle=none;html=1;" edge="1" parent="1" source="5" target="10">
                    <mxGeometry relative="1" as="geometry"/>
                </mxCell>
                <mxCell id="5" value="vnode 与 oldVnode&lt;br&gt;完全相等？" style="rhombus;whiteSpace=wrap;html=1;" vertex="1" parent="1">
                    <mxGeometry x="904" y="220" width="172" height="80" as="geometry"/>
                </mxCell>
                <mxCell id="7" value="退出程序" style="whiteSpace=wrap;html=1;" vertex="1" parent="1">
                    <mxGeometry x="1180" y="230" width="120" height="60" as="geometry"/>
                </mxCell>
                <mxCell id="9" value="是" style="text;html=1;align=center;verticalAlign=middle;resizable=0;points=[];autosize=1;strokeColor=none;fillColor=none;" vertex="1" parent="1">
                    <mxGeometry x="1120" y="240" width="30" height="20" as="geometry"/>
                </mxCell>
                <mxCell id="14" value="" style="edgeStyle=none;html=1;" edge="1" parent="1" source="10" target="13">
                    <mxGeometry relative="1" as="geometry"/>
                </mxCell>
                <mxCell id="17" value="" style="edgeStyle=none;html=1;" edge="1" parent="1" source="10" target="16">
                    <mxGeometry relative="1" as="geometry"/>
                </mxCell>
                <mxCell id="10" value="vnode 与 oldVnode&amp;nbsp;&lt;br&gt;是静态节点？" style="rhombus;whiteSpace=wrap;html=1;" vertex="1" parent="1">
                    <mxGeometry x="892.5" y="370" width="195" height="80" as="geometry"/>
                </mxCell>
                <mxCell id="12" value="否" style="text;html=1;align=center;verticalAlign=middle;resizable=0;points=[];autosize=1;strokeColor=none;fillColor=none;" vertex="1" parent="1">
                    <mxGeometry x="990" y="330" width="30" height="20" as="geometry"/>
                </mxCell>
                <mxCell id="13" value="退出程序" style="whiteSpace=wrap;html=1;" vertex="1" parent="1">
                    <mxGeometry x="1180" y="380" width="120" height="60" as="geometry"/>
                </mxCell>
                <mxCell id="15" value="是" style="text;html=1;align=center;verticalAlign=middle;resizable=0;points=[];autosize=1;strokeColor=none;fillColor=none;" vertex="1" parent="1">
                    <mxGeometry x="1115" y="390" width="30" height="20" as="geometry"/>
                </mxCell>
                <mxCell id="16" value="vnode 有 text 属性？" style="rhombus;whiteSpace=wrap;html=1;" vertex="1" parent="1">
                    <mxGeometry x="906" y="520" width="170" height="80" as="geometry"/>
                </mxCell>
                <mxCell id="18" value="否" style="text;html=1;align=center;verticalAlign=middle;resizable=0;points=[];autosize=1;strokeColor=none;fillColor=none;" vertex="1" parent="1">
                    <mxGeometry x="990" y="470" width="30" height="20" as="geometry"/>
                </mxCell>
                <mxCell id="23" value="" style="edgeStyle=segmentEdgeStyle;endArrow=classic;html=1;" edge="1" parent="1">
                    <mxGeometry width="50" height="50" relative="1" as="geometry">
                        <mxPoint x="1076" y="560" as="sourcePoint"/>
                        <mxPoint x="1220" y="610" as="targetPoint"/>
                        <Array as="points">
                            <mxPoint x="1220" y="560"/>
                        </Array>
                    </mxGeometry>
                </mxCell>
                <mxCell id="24" value="是" style="text;html=1;align=center;verticalAlign=middle;resizable=0;points=[];autosize=1;strokeColor=none;fillColor=none;" vertex="1" parent="1">
                    <mxGeometry x="1135" y="540" width="30" height="20" as="geometry"/>
                </mxCell>
                <mxCell id="25" value="vnode 的文本和 oldVnode 的&lt;br&gt;文本是否相同？" style="rhombus;whiteSpace=wrap;html=1;" vertex="1" parent="1">
                    <mxGeometry x="1125" y="610" width="190" height="91" as="geometry"/>
                </mxCell>
                <mxCell id="26" value="退出程序" style="whiteSpace=wrap;html=1;" vertex="1" parent="1">
                    <mxGeometry x="1015" y="750" width="120" height="60" as="geometry"/>
                </mxCell>
                <mxCell id="28" value="相同" style="text;html=1;align=center;verticalAlign=middle;resizable=0;points=[];autosize=1;strokeColor=none;fillColor=none;" vertex="1" parent="1">
                    <mxGeometry x="1075" y="690" width="40" height="20" as="geometry"/>
                </mxCell>
                <mxCell id="29" value="" style="edgeStyle=segmentEdgeStyle;endArrow=classic;html=1;" edge="1" parent="1">
                    <mxGeometry width="50" height="50" relative="1" as="geometry">
                        <mxPoint x="1315" y="655" as="sourcePoint"/>
                        <mxPoint x="1365" y="750" as="targetPoint"/>
                    </mxGeometry>
                </mxCell>
                <mxCell id="30" value="不相同" style="edgeLabel;html=1;align=center;verticalAlign=middle;resizable=0;points=[];" vertex="1" connectable="0" parent="29">
                    <mxGeometry x="0.1972" y="5" relative="1" as="geometry">
                        <mxPoint x="15" as="offset"/>
                    </mxGeometry>
                </mxCell>
                <mxCell id="31" value="把真实 DOM 节点的内容改成 vnode.text 所保存的文本" style="rounded=0;whiteSpace=wrap;html=1;" vertex="1" parent="1">
                    <mxGeometry x="1307" y="750" width="120" height="60" as="geometry"/>
                </mxCell>
                <mxCell id="32" value="" style="endArrow=classic;html=1;entryX=1;entryY=0.5;entryDx=0;entryDy=0;exitX=0;exitY=0.5;exitDx=0;exitDy=0;" edge="1" parent="1" source="31" target="26">
                    <mxGeometry width="50" height="50" relative="1" as="geometry">
                        <mxPoint x="1300" y="780" as="sourcePoint"/>
                        <mxPoint x="1350" y="740" as="targetPoint"/>
                    </mxGeometry>
                </mxCell>
                <mxCell id="33" value="" style="edgeStyle=segmentEdgeStyle;endArrow=classic;html=1;entryX=0.5;entryY=0;entryDx=0;entryDy=0;" edge="1" parent="1">
                    <mxGeometry width="50" height="50" relative="1" as="geometry">
                        <mxPoint x="1123" y="655" as="sourcePoint"/>
                        <mxPoint x="1073" y="750" as="targetPoint"/>
                        <Array as="points">
                            <mxPoint x="1073" y="655"/>
                        </Array>
                    </mxGeometry>
                </mxCell>
                <mxCell id="34" value="" style="edgeStyle=segmentEdgeStyle;endArrow=classic;html=1;entryX=0.5;entryY=0;entryDx=0;entryDy=0;" edge="1" parent="1" target="35">
                    <mxGeometry width="50" height="50" relative="1" as="geometry">
                        <mxPoint x="906" y="560" as="sourcePoint"/>
                        <mxPoint x="650" y="650" as="targetPoint"/>
                        <Array as="points">
                            <mxPoint x="590" y="560"/>
                        </Array>
                    </mxGeometry>
                </mxCell>
                <mxCell id="35" value="vnode 有子节点？" style="rhombus;whiteSpace=wrap;html=1;" vertex="1" parent="1">
                    <mxGeometry x="520" y="650" width="140" height="70" as="geometry"/>
                </mxCell>
                <mxCell id="36" value="" style="edgeStyle=segmentEdgeStyle;endArrow=classic;html=1;" edge="1" parent="1">
                    <mxGeometry width="50" height="50" relative="1" as="geometry">
                        <mxPoint x="660" y="684.5" as="sourcePoint"/>
                        <mxPoint x="720" y="804" as="targetPoint"/>
                    </mxGeometry>
                </mxCell>
                <mxCell id="37" value="" style="edgeStyle=segmentEdgeStyle;endArrow=classic;html=1;" edge="1" parent="1">
                    <mxGeometry width="50" height="50" relative="1" as="geometry">
                        <mxPoint x="520" y="685" as="sourcePoint"/>
                        <mxPoint x="390" y="805" as="targetPoint"/>
                        <Array as="points">
                            <mxPoint x="520" y="685"/>
                            <mxPoint x="390" y="685"/>
                        </Array>
                    </mxGeometry>
                </mxCell>
                <mxCell id="40" value="" style="edgeStyle=none;html=1;" edge="1" parent="1" source="38" target="39">
                    <mxGeometry relative="1" as="geometry"/>
                </mxCell>
                <mxCell id="47" value="" style="edgeStyle=none;html=1;" edge="1" parent="1" source="38" target="46">
                    <mxGeometry relative="1" as="geometry"/>
                </mxCell>
                <mxCell id="38" value="oldVnode&amp;nbsp;&lt;br&gt;有子节点？" style="rhombus;whiteSpace=wrap;html=1;" vertex="1" parent="1">
                    <mxGeometry x="660" y="803" width="120" height="67" as="geometry"/>
                </mxCell>
                <mxCell id="39" value="清空真实 DOM 中的子节点" style="whiteSpace=wrap;html=1;" vertex="1" parent="1">
                    <mxGeometry x="660" y="930" width="120" height="60" as="geometry"/>
                </mxCell>
                <mxCell id="41" value="有" style="text;html=1;align=center;verticalAlign=middle;resizable=0;points=[];autosize=1;strokeColor=none;fillColor=none;" vertex="1" parent="1">
                    <mxGeometry x="696" y="890" width="30" height="20" as="geometry"/>
                </mxCell>
                <mxCell id="50" value="" style="edgeStyle=none;html=1;" edge="1" parent="1" source="46" target="49">
                    <mxGeometry relative="1" as="geometry"/>
                </mxCell>
                <mxCell id="46" value="oldVnode 是否&lt;br&gt;有文本？" style="rhombus;whiteSpace=wrap;html=1;" vertex="1" parent="1">
                    <mxGeometry x="840" y="800" width="127.5" height="70" as="geometry"/>
                </mxCell>
                <mxCell id="48" value="没有" style="text;html=1;align=center;verticalAlign=middle;resizable=0;points=[];autosize=1;strokeColor=none;fillColor=none;" vertex="1" parent="1">
                    <mxGeometry x="780" y="810" width="40" height="20" as="geometry"/>
                </mxCell>
                <mxCell id="49" value="清空真实 DOM中&lt;br&gt;的文本" style="whiteSpace=wrap;html=1;" vertex="1" parent="1">
                    <mxGeometry x="843.75" y="930" width="120" height="60" as="geometry"/>
                </mxCell>
                <mxCell id="60" value="" style="edgeStyle=none;html=1;" edge="1" parent="1" source="51" target="59">
                    <mxGeometry relative="1" as="geometry"/>
                </mxCell>
                <mxCell id="66" value="" style="edgeStyle=none;html=1;" edge="1" parent="1" source="51" target="65">
                    <mxGeometry relative="1" as="geometry"/>
                </mxCell>
                <mxCell id="51" value="oldVnode 有子节点？" style="rhombus;whiteSpace=wrap;html=1;" vertex="1" parent="1">
                    <mxGeometry x="313" y="803" width="155" height="77" as="geometry"/>
                </mxCell>
                <mxCell id="52" value="没有" style="text;html=1;align=center;verticalAlign=middle;resizable=0;points=[];autosize=1;strokeColor=none;fillColor=none;" vertex="1" parent="1">
                    <mxGeometry x="726" y="540" width="40" height="20" as="geometry"/>
                </mxCell>
                <mxCell id="53" value="没有" style="text;html=1;align=center;verticalAlign=middle;resizable=0;points=[];autosize=1;strokeColor=none;fillColor=none;" vertex="1" parent="1">
                    <mxGeometry x="717" y="720" width="40" height="20" as="geometry"/>
                </mxCell>
                <mxCell id="54" value="有" style="text;html=1;align=center;verticalAlign=middle;resizable=0;points=[];autosize=1;strokeColor=none;fillColor=none;" vertex="1" parent="1">
                    <mxGeometry x="390" y="720" width="30" height="20" as="geometry"/>
                </mxCell>
                <mxCell id="55" value="有" style="text;html=1;align=center;verticalAlign=middle;resizable=0;points=[];autosize=1;strokeColor=none;fillColor=none;" vertex="1" parent="1">
                    <mxGeometry x="898" y="880" width="30" height="20" as="geometry"/>
                </mxCell>
                <mxCell id="63" value="" style="edgeStyle=none;html=1;" edge="1" parent="1" source="59" target="62">
                    <mxGeometry relative="1" as="geometry"/>
                </mxCell>
                <mxCell id="59" value="oldVnode子节点 与 &lt;br&gt;vnode子节点是否不相同 ？" style="rhombus;whiteSpace=wrap;html=1;" vertex="1" parent="1">
                    <mxGeometry x="40" y="791.5" width="193" height="100" as="geometry"/>
                </mxCell>
                <mxCell id="61" value="有" style="text;html=1;align=center;verticalAlign=middle;resizable=0;points=[];autosize=1;strokeColor=none;fillColor=none;" vertex="1" parent="1">
                    <mxGeometry x="255" y="820" width="30" height="20" as="geometry"/>
                </mxCell>
                <mxCell id="62" value="更新子节点" style="whiteSpace=wrap;html=1;" vertex="1" parent="1">
                    <mxGeometry x="76.5" y="991.5" width="120" height="60" as="geometry"/>
                </mxCell>
                <mxCell id="64" value="是" style="text;html=1;align=center;verticalAlign=middle;resizable=0;points=[];autosize=1;strokeColor=none;fillColor=none;" vertex="1" parent="1">
                    <mxGeometry x="135" y="920" width="30" height="20" as="geometry"/>
                </mxCell>
                <mxCell id="69" value="" style="edgeStyle=none;html=1;" edge="1" parent="1" source="65" target="68">
                    <mxGeometry relative="1" as="geometry"/>
                </mxCell>
                <mxCell id="65" value="oldVnode 有文本？" style="rhombus;whiteSpace=wrap;html=1;" vertex="1" parent="1">
                    <mxGeometry x="313" y="958.5" width="159.5" height="61.5" as="geometry"/>
                </mxCell>
                <mxCell id="67" value="没有" style="text;html=1;align=center;verticalAlign=middle;resizable=0;points=[];autosize=1;strokeColor=none;fillColor=none;" vertex="1" parent="1">
                    <mxGeometry x="390.5" y="910" width="40" height="20" as="geometry"/>
                </mxCell>
                <mxCell id="68" value="清空 DOM 中的文本" style="whiteSpace=wrap;html=1;" vertex="1" parent="1">
                    <mxGeometry x="332.75" y="1100.75" width="120" height="60" as="geometry"/>
                </mxCell>
                <mxCell id="70" value="有" style="text;html=1;align=center;verticalAlign=middle;resizable=0;points=[];autosize=1;strokeColor=none;fillColor=none;" vertex="1" parent="1">
                    <mxGeometry x="395" y="1050" width="30" height="20" as="geometry"/>
                </mxCell>
                <mxCell id="71" value="" style="edgeStyle=segmentEdgeStyle;endArrow=classic;html=1;" edge="1" parent="1">
                    <mxGeometry width="50" height="50" relative="1" as="geometry">
                        <mxPoint x="472.5" y="991.5" as="sourcePoint"/>
                        <mxPoint x="560" y="1100" as="targetPoint"/>
                        <Array as="points">
                            <mxPoint x="560" y="992"/>
                            <mxPoint x="560" y="1070"/>
                        </Array>
                    </mxGeometry>
                </mxCell>
                <mxCell id="72" value="没有" style="text;html=1;align=center;verticalAlign=middle;resizable=0;points=[];autosize=1;strokeColor=none;fillColor=none;" vertex="1" parent="1">
                    <mxGeometry x="520" y="1010" width="40" height="20" as="geometry"/>
                </mxCell>
                <mxCell id="73" value="把 vnode 的子节点添加到DOM" style="rounded=0;whiteSpace=wrap;html=1;" vertex="1" parent="1">
                    <mxGeometry x="500" y="1101" width="120" height="60" as="geometry"/>
                </mxCell>
                <mxCell id="74" value="" style="endArrow=classic;html=1;entryX=0;entryY=0.5;entryDx=0;entryDy=0;" edge="1" parent="1" target="73">
                    <mxGeometry width="50" height="50" relative="1" as="geometry">
                        <mxPoint x="452.75" y="1131" as="sourcePoint"/>
                        <mxPoint x="482.75" y="1101" as="targetPoint"/>
                    </mxGeometry>
                </mxCell>
            </root>
        </mxGraphModel>
    </diagram>
</mxfile>